<?xml version="1.0" encoding="UTF-8"?>
<svg xmlns="http://www.w3.org/2000/svg" viewBox="0 0 512 512">
  <defs>
    <linearGradient id="droneGradient" x1="0%" y1="0%" x2="100%" y2="100%">
      <stop offset="0%" style="stop-color:#FFCC00;stop-opacity:1" />
      <stop offset="50%" style="stop-color:#FF9500;stop-opacity:1" />
      <stop offset="100%" style="stop-color:#FF5E3A;stop-opacity:1" />
    </linearGradient>
  </defs>
  <path fill="url(#droneGradient)" d="M256 7.1c-19.5 0-35.4 14.2-35.4 31.8 0 14.3 8.9 26.3 21.6 30.8l-89.4 105.7h-32.2c-8.9 0-17.1 1.7-24.2 4.4-5.9-10.1-16.7-16.9-29.3-16.9-18.9 0-34.2 15.3-34.2 34.2 0 18.9 15.3 34.2 34.2 34.2 12.5 0 23.4-6.8 29.3-16.9 7.1 2.8 15.3 4.4 24.2 4.4h12.2l-69.3 81.9c-2.6-.4-5.3-.7-8.1-.7-28.9 0-52.4 23.5-52.4 52.4 0 28.9 23.5 52.4 52.4 52.4 27.5 0 50-21.4 52.2-48.4h108.2V505c0 3.9 3.1 7 7 7s7-3.1 7-7V356.4h108.2c2.2 27 24.6 48.4 52.2 48.4 28.9 0 52.4-23.5 52.4-52.4 0-28.9-23.5-52.4-52.4-52.4-2.7 0-5.4.2-8.1.7l-69.3-81.9h12.2c8.9 0 17.1-1.7 24.2-4.4 5.9 10.1 16.7 16.9 29.3 16.9 18.9 0 34.2-15.3 34.2-34.2 0-18.9-15.3-34.2-34.2-34.2-12.5 0-23.4 6.8-29.3 16.9-7.1-2.8-15.3-4.4-24.2-4.4h-32.2L242.2 69.7c12.6-4.4 21.6-16.5 21.6-30.8-.2-17.6-16.1-31.8-35.6-31.8zm-198.1 196.9c-9.5 0-17.1-7.7-17.1-17.1 0-9.5 7.7-17.1 17.1-17.1 9.5 0 17.1 7.7 17.1 17.1s-7.7 17.1-17.1 17.1zm0 195.5c-19.5 0-35.4-15.9-35.4-35.4 0-19.5 15.9-35.4 35.4-35.4s35.4 15.9 35.4 35.4c0 19.5-15.9 35.4-35.4 35.4zm170.4-48.4H121.8c-2.2-15-12.5-27.3-26.4-32.6l81.5-96.3c2.1 1.3 4.2 2.3 6.5 3.3 6.6 2.6 13.8 4.1 21.3 4.1h23.6v121.5zm17-151.6H173.1c-15.2 0-27.5-12.4-27.5-27.5 0-15.2 12.4-27.5 27.5-27.5h72.3v55zm17-55h72.3c15.2 0 27.5 12.4 27.5 27.5 0 15.2-12.4 27.5-27.5 27.5h-72.3v-55zm17 85.1h23.6c7.5 0 14.7-1.5 21.3-4.1 2.3-1 4.4-2 6.5-3.3l81.5 96.3c-13.9 5.3-24.2 17.6-26.4 32.6H279.3V229.6zm0 0zm327.5-25.6c9.5 0 17.1 7.7 17.1 17.1 0 9.5-7.7 17.1-17.1 17.1-9.5 0-17.1-7.7-17.1-17.1s7.7-17.1 17.1-17.1zm0 195.5c-19.5 0-35.4-15.9-35.4-35.4 0-19.5 15.9-35.4 35.4-35.4s35.4 15.9 35.4 35.4c0 19.5-15.9 35.4-35.4 35.4zm0 0"></path>
</svg>